<?xml version="1.0" standalone="no"?>
<!DOCTYPE svg PUBLIC "-//W3C//DTD SVG 20010904//EN"
 "http://www.w3.org/TR/2001/REC-SVG-20010904/DTD/svg10.dtd">
<svg version="1.0" xmlns="http://www.w3.org/2000/svg"
 width="512.000000pt" height="512.000000pt" viewBox="0 0 512.000000 512.000000"
 preserveAspectRatio="xMidYMid meet">

<g transform="translate(0.000000,512.000000) scale(0.100000,-0.100000)"
fill="#000000" stroke="none">
<path d="M1640 5111 c-69 -21 -130 -73 -166 -141 -18 -33 -19 -74 -19 -820 0
-784 0 -785 23 -875 85 -334 356 -606 684 -685 46 -11 95 -20 111 -20 l27 0 0
-697 0 -698 -42 65 c-60 93 -235 263 -348 338 -105 70 -253 144 -372 187 -122
43 -203 23 -243 -61 -27 -57 -15 -101 54 -209 156 -240 269 -538 316 -829 28
-173 70 -260 169 -354 98 -93 230 -142 383 -142 l82 0 11 -40 c13 -49 49 -93
94 -114 53 -25 264 -23 315 4 48 24 78 60 91 111 l11 39 82 0 c153 0 285 49
383 142 99 94 141 182 169 354 46 291 160 588 317 831 68 106 80 150 53 207
-41 86 -124 105 -250 58 -312 -117 -573 -309 -715 -525 l-40 -62 0 698 0 697
28 0 c53 0 196 41 280 80 235 110 417 318 495 565 46 147 48 191 45 980 -3
737 -3 740 -25 780 -25 47 -75 96 -122 120 -45 23 -130 30 -177 15 -21 -6
-115 -62 -208 -123 l-168 -111 -21 29 c-40 58 -129 135 -190 164 -134 64 -263
63 -396 -2 -62 -30 -161 -116 -193 -167 l-15 -24 -169 111 c-197 130 -255 151
-344 124z m328 -320 c273 -182 341 -245 412 -383 90 -172 84 -107 88 -942 l3
-739 -108 6 c-168 10 -292 52 -416 141 -161 114 -268 279 -308 471 -17 83 -19
147 -19 818 l0 729 29 29 c17 17 40 29 55 29 16 0 111 -57 264 -159z m720 118
c44 -21 75 -46 102 -81 l40 -50 -56 -51 c-67 -61 -140 -155 -180 -232 -16 -30
-31 -55 -34 -55 -3 0 -18 26 -35 57 -37 72 -126 185 -188 239 l-47 41 35 46
c59 77 171 131 255 122 25 -3 73 -19 108 -36z m783 12 l29 -29 0 -720 c0 -793
-2 -826 -61 -968 -90 -216 -286 -387 -514 -448 -33 -9 -109 -19 -168 -23
l-108 -6 3 739 c4 835 -2 770 88 942 71 138 139 201 412 383 153 102 248 159
264 159 15 0 38 -12 55 -29z m-823 -3553 l-3 -1193 -85 0 -85 0 -3 1193 -2
1192 90 0 90 0 -2 -1192z m-1059 193 c169 -73 307 -168 422 -288 126 -133 208
-281 256 -461 22 -82 26 -126 31 -286 l4 -189 -100 5 c-88 4 -110 9 -166 37
-72 35 -132 96 -165 165 -11 24 -29 99 -41 166 -49 292 -145 559 -283 789 -31
52 -57 96 -57 98 0 6 10 3 99 -36z m2041 33 c0 -3 -8 -18 -19 -32 -36 -53
-121 -210 -157 -293 -79 -183 -131 -359 -165 -560 -24 -144 -53 -212 -117
-270 -70 -66 -139 -91 -255 -97 l-99 -5 4 189 c5 160 9 204 31 286 88 335 312
585 667 744 97 44 110 48 110 38z"/>
</g>
</svg>
